<?xml version="1.0" encoding="UTF-8"?>
<svg id="Main_Layer" xmlns="http://www.w3.org/2000/svg" version="1.1" viewBox="0 0 1013.6 434.5">
  <!-- Generator: Adobe Illustrator 29.1.0, SVG Export Plug-In . SVG Version: 2.1.0 Build 142)  -->
  <defs>
    <style>
      .st0 {
        fill: #fff;
      }

      .st1 {
        fill: #292e30;
      }

      .st2 {
        fill: #dae120;
      }
    </style>
  </defs>
  <g>
    <circle class="st2" cx="226.6" cy="217.4" r="192.1"/>
    <g>
      <g>
        <path class="st1" d="M226.6,240.2c-32.5,0-59,26.5-59,59s26.5,59,59,59,59-26.5,59-59-26.5-59-59-59"/>
        <path class="st1" d="M315.6,178.1c-24-20.5-55.4-31.7-88.6-31.7s-.3,0-.4,0-.3,0-.4,0c-33.3,0-64.6,11.2-88.6,31.7-.9.8-2.1,2.6-2.2,4.4-.1,3,1.4,4.6,1.4,4.6l11.3,13.9s1.7,2.2,4.4,2.4c2.2.2,3.7-.6,4.5-1.1,21.7-16.2,45.7-24.5,69.5-24.5s47.8,8.3,69.5,24.5c.8.6,2.3,1.3,4.5,1.1,2.8-.3,4.4-2.4,4.4-2.4l11.3-13.9s1.5-1.6,1.4-4.6c0-1.9-1.3-3.7-2.2-4.4"/>
        <path class="st1" d="M283.5,218.3c-15.4-12.4-35.1-19.1-56-19.1s-.6,0-1,0c-.3,0-.6,0-1,0-20.9,0-40.6,6.8-56,19.1-1.2,1-2.3,3-2.3,4.8-.1,2.6,1.3,4.3,1.3,4.3l4.7,5.8s1.5,2,4.3,2.4c1.9.2,3.5-.4,4.7-1.2,14-9.9,29.3-14.6,44.3-14.7,15,0,30.3,4.8,44.3,14.7,1.1.8,2.8,1.4,4.7,1.2,2.8-.3,4.3-2.4,4.3-2.4l4.7-5.8s1.4-1.7,1.3-4.3c0-1.9-1.1-3.9-2.3-4.8"/>
        <path class="st1" d="M353.4,125.4c-34.1-28.8-78.4-44.6-125.4-44.6s-.5,0-.8,0c-.2,0-.5,0-.7,0-.2,0-.5,0-.7,0-.3,0-.5,0-.8,0-47,0-91.3,15.8-125.4,44.6-.9.7-3.1,3-3.4,6.8-.3,4.1,2.1,7.1,2.1,7.1l13,16.6c.5.6,3,4.3,7.7,4.6,4.2.3,6.4-1.4,6.9-1.8,29.3-22.6,64-33.2,99.8-33.2s.5,0,.7,0c.2,0,.5,0,.7,0,35.8,0,70.6,10.6,99.8,33.2.5.4,2.6,2,6.9,1.8,4.8-.3,7.3-4.1,7.7-4.6l13-16.6s2.4-3,2.1-7.1c-.3-3.8-2.5-6.1-3.4-6.8"/>
      </g>
      <path class="st2" d="M219.2,295.7c.2.2.5.1.5.1h3.3c4.1,0,7.2-.7,9.3-2.2,1.2-.8,2.2-2,2.9-3.5.7-1.5,1.1-3.1,1.1-4.9,0-3.4-1.1-6-3.3-7.7-2.2-1.8-5.5-2.6-9.8-2.6h-3.6c0,0-.3,0-.4.1,0,0-.1.2-.1.3v19.9s0,.3.2.5M234.5,304l18.4,24.7c.9,1.2,1.3,2,1.3,2.5s-.3,1.3-.8,1.6c-.5.3-1.5.5-2.8.5h-8.4c-1.4,0-2-.3-2.3-.5-.3-.2-1-.5-1.7-1.7l-17.4-25.8h-1.7v24.3c0,1.6-.4,2.3-.8,2.7s-1.2.9-2.8.9h-6.4c-1.6,0-2.4-.5-2.8-.9-.4-.4-.8-1.1-.8-2.7v-62.2c0-1.6.6-2.3,1-2.7.4-.4,1-.9,2.6-.9h16.5c7.8,0,13.7,1.6,17.7,4.9,2.1,1.7,3.8,4,5,6.8,1.2,2.8,1.8,5.7,1.8,8.8s-.6,6-1.7,8.7c-1.1,2.7-2.6,4.9-4.6,6.6-2.5,2.1-5.7,3.5-9.6,4.3"/>
    </g>
  </g>
  <g>
    <path class="st0" d="M486.1,222.7l18.4,25.3c.9,1.3,1.4,2.2,1.4,2.8s-.3,1.4-.9,1.7c-.6.3-1.6.5-3.1.5h-4.2c-1.5,0-2.4,0-2.7-.2s-.9-.8-1.7-2.1l-18.8-26.9h-1.9v25.3c0,1.7-.2,2.8-.7,3.2s-1.5.7-3.2.7h-2.9c-1.7,0-2.8-.2-3.2-.7-.5-.5-.7-1.5-.7-3.2v-63.5c0-1.7.2-2.8.7-3.2.5-.5,1.6-.7,3.2-.7h8.7c4.6,0,8.3.3,11.2.9,2.9.6,5.4,1.7,7.6,3.2,2.6,1.8,4.8,4.2,6.3,7.4,1.5,3,2.2,6.1,2.2,9.5,0,5-1.4,9.3-4.3,13-2.9,3.7-6.7,6-11.4,7ZM472.7,214.5h3.4c4.7,0,8.3-.9,10.7-2.6,3-2.1,4.5-5.1,4.5-9.1s-1.4-6.6-4.2-8.5c-2.4-1.6-5.9-2.5-10.7-2.5h-3.8v22.6Z"/>
    <path class="st0" d="M527.1,185.6v63.5c0,1.7-.2,2.8-.7,3.2s-1.5.7-3.2.7h-2.9c-1.7,0-2.8-.2-3.2-.7-.5-.5-.7-1.5-.7-3.2v-63.5c0-1.7.2-2.8.7-3.2s1.5-.7,3.2-.7h2.9c1.7,0,2.8.2,3.2.7.5.5.7,1.5.7,3.2Z"/>
    <path class="st0" d="M550.7,224.1v25c0,1.7-.2,2.8-.7,3.2s-1.5.7-3.2.7h-2.9c-1.7,0-2.8-.2-3.2-.7-.5-.5-.7-1.5-.7-3.2v-63.5c0-1.7.2-2.8.7-3.2s1.5-.7,3.2-.7h8.3c6.6,0,11.3.5,14.1,1.4,5.2,1.7,9,5,11.4,9.9,1.6,3.1,2.4,6.4,2.4,9.9,0,6.1-2.1,11.2-6.2,15.2-4.2,4-10.2,6.1-18,6.1h-5ZM550.7,214.1h4c5.2,0,8.9-1,11.2-2.9,2.4-2.1,3.7-4.9,3.7-8.5s-1.3-6.6-4-8.5c-2.4-1.7-6.1-2.6-11.3-2.6h-3.6v22.5Z"/>
    <path class="st0" d="M601.2,224.1v25c0,1.7-.2,2.8-.7,3.2s-1.5.7-3.2.7h-2.9c-1.7,0-2.8-.2-3.2-.7-.5-.5-.7-1.5-.7-3.2v-63.5c0-1.7.2-2.8.7-3.2s1.5-.7,3.2-.7h8.3c6.6,0,11.3.5,14.1,1.4,5.2,1.7,9,5,11.4,9.9,1.6,3.1,2.4,6.4,2.4,9.9,0,6.1-2.1,11.2-6.2,15.2-4.2,4-10.2,6.1-18,6.1h-5ZM601.2,214.1h4c5.2,0,8.9-1,11.2-2.9,2.4-2.1,3.7-4.9,3.7-8.5s-1.3-6.6-4-8.5c-2.4-1.7-6.1-2.6-11.3-2.6h-3.6v22.5Z"/>
    <path class="st0" d="M651.6,242.9h17c1.7,0,2.8.2,3.2.7.5.5.7,1.5.7,3.2v2.3c0,1.7-.2,2.8-.7,3.2s-1.5.7-3.2.7h-23.9c-1.7,0-2.8-.2-3.2-.7-.5-.5-.7-1.5-.7-3.2v-63.5c0-1.7.2-2.8.7-3.2s1.5-.7,3.2-.7h2.9c1.7,0,2.8.2,3.2.7.5.5.7,1.5.7,3.2v57.3Z"/>
    <path class="st0" d="M694.7,191.8v17.1h23.8c1.7,0,2.8.2,3.2.7s.7,1.5.7,3.2v2.3c0,1.7-.2,2.8-.7,3.2-.5.5-1.5.7-3.2.7h-23.8v23.8h24.7c1.7,0,2.8.2,3.2.7.5.5.7,1.5.7,3.2v2.3c0,1.7-.2,2.8-.7,3.2-.5.5-1.5.7-3.2.7h-31.5c-1.7,0-2.8-.2-3.2-.7-.5-.5-.7-1.5-.7-3.2v-63.5c0-1.7.2-2.8.7-3.2.5-.5,1.6-.7,3.2-.7h31.5c1.7,0,2.8.2,3.2.7.5.5.7,1.6.7,3.2v2.3c0,1.7-.2,2.8-.7,3.2s-1.5.7-3.2.7h-24.7Z"/>
    <path class="st0" d="M774.9,191.8v17.1h20.1c1.7,0,2.8.2,3.2.7.5.5.7,1.5.7,3.2v2.3c0,1.7-.2,2.8-.7,3.2-.5.5-1.6.7-3.2.7h-20.1v30c0,1.7-.2,2.8-.7,3.2s-1.5.7-3.2.7h-2.9c-1.7,0-2.8-.2-3.2-.7-.5-.5-.7-1.5-.7-3.2v-63.5c0-1.7.2-2.8.7-3.2.5-.5,1.6-.7,3.2-.7h27.7c1.7,0,2.8.2,3.2.7.5.5.7,1.6.7,3.2v2.3c0,1.7-.2,2.8-.7,3.2-.5.5-1.5.7-3.2.7h-20.9Z"/>
    <path class="st0" d="M820.4,185.6v63.5c0,1.7-.2,2.8-.7,3.2s-1.5.7-3.2.7h-2.9c-1.7,0-2.8-.2-3.2-.7-.5-.5-.7-1.5-.7-3.2v-63.5c0-1.7.2-2.8.7-3.2s1.5-.7,3.2-.7h2.9c1.7,0,2.8.2,3.2.7.5.5.7,1.5.7,3.2Z"/>
    <path class="st0" d="M863.4,214.6c2.6.9,4.8,2.2,6.5,3.9,3.8,3.7,5.7,8.4,5.7,14.1s-2.4,11.3-7.2,15.3c-2.3,1.9-4.9,3.2-7.6,4-2.7.7-6.5,1.1-11.3,1.1h-12.4c-1.7,0-2.8-.2-3.2-.7-.5-.5-.7-1.5-.7-3.2v-63.5c0-1.7.2-2.8.7-3.2s1.5-.7,3.2-.7h6.8c4.2,0,7.7.3,10.3.8,2.6.6,4.9,1.5,6.8,2.8,2.6,1.7,4.6,4.2,6.1,7.5,1.3,2.8,2,5.7,2,8.7,0,5.2-2,9.5-5.9,13ZM844,212.3h3.3c4,0,6.9-.8,8.6-2.5,2-2,3-4.7,3-8s-1-5.8-3-7.7c-1.7-1.7-4.5-2.5-8.3-2.5h-3.8v20.7ZM844,242.9h6.7c4.4,0,7.7-.7,9.9-2.2,1.3-.9,2.4-2.1,3.2-3.6.8-1.5,1.2-3.1,1.2-4.8s-.4-3.2-1.2-4.8c-.8-1.6-1.9-2.8-3.2-3.7-2.3-1.6-6-2.4-11.2-2.4h-5.4v21.5Z"/>
    <path class="st0" d="M895.6,191.8v17.1h23.8c1.7,0,2.8.2,3.2.7s.7,1.5.7,3.2v2.3c0,1.7-.2,2.8-.7,3.2-.5.5-1.5.7-3.2.7h-23.8v23.8h24.7c1.7,0,2.8.2,3.2.7.5.5.7,1.5.7,3.2v2.3c0,1.7-.2,2.8-.7,3.2-.5.5-1.5.7-3.2.7h-31.5c-1.7,0-2.8-.2-3.2-.7-.5-.5-.7-1.5-.7-3.2v-63.5c0-1.7.2-2.8.7-3.2.5-.5,1.6-.7,3.2-.7h31.5c1.7,0,2.8.2,3.2.7.5.5.7,1.6.7,3.2v2.3c0,1.7-.2,2.8-.7,3.2s-1.5.7-3.2.7h-24.7Z"/>
    <path class="st0" d="M959.3,222.7l18.4,25.3c.9,1.3,1.4,2.2,1.4,2.8s-.3,1.4-.9,1.7c-.6.3-1.6.5-3.1.5h-4.2c-1.5,0-2.4,0-2.7-.2s-.9-.8-1.7-2.1l-18.8-26.9h-1.9v25.3c0,1.7-.2,2.8-.7,3.2s-1.5.7-3.2.7h-2.9c-1.7,0-2.8-.2-3.2-.7-.5-.5-.7-1.5-.7-3.2v-63.5c0-1.7.2-2.8.7-3.2.5-.5,1.6-.7,3.2-.7h8.7c4.6,0,8.3.3,11.2.9,2.9.6,5.4,1.7,7.6,3.2,2.6,1.8,4.8,4.2,6.3,7.4,1.5,3,2.2,6.1,2.2,9.5,0,5-1.4,9.3-4.3,13-2.9,3.7-6.7,6-11.4,7ZM945.9,214.5h3.4c4.7,0,8.3-.9,10.7-2.6,3-2.1,4.5-5.1,4.5-9.1s-1.4-6.6-4.2-8.5c-2.4-1.6-5.9-2.5-10.7-2.5h-3.8v22.6Z"/>
  </g>
</svg>