<?xml version="1.0" encoding="UTF-8"?>
<svg id="Main_Layer" data-name="Main Layer" xmlns="http://www.w3.org/2000/svg" viewBox="0 0 944.69 384.19">
  <g>
    <circle cx="192.09" cy="192.09" r="192.09" style="fill: #292e30;"/>
    <g>
      <g>
        <path d="M192.09,214.92c-32.53,0-58.99,26.46-58.99,58.99s26.46,58.99,58.99,58.99,58.99-26.46,58.99-58.99-26.46-58.99-58.99-58.99" style="fill: #dae120;"/>
        <path d="M281.1,152.81c-24.03-20.47-55.35-31.7-88.63-31.7-.13,0-.26,0-.38,0s-.26,0-.38,0c-33.27,0-64.6,11.23-88.62,31.7-.91.78-2.1,2.56-2.17,4.43-.1,3.01,1.42,4.64,1.42,4.64l11.3,13.92s1.66,2.16,4.42,2.42c2.19.2,3.72-.55,4.52-1.14,21.72-16.18,45.65-24.51,69.53-24.51s47.81,8.33,69.53,24.51c.79.59,2.33,1.35,4.52,1.14,2.76-.26,4.42-2.42,4.42-2.42l11.3-13.92s1.52-1.63,1.42-4.64c-.06-1.87-1.25-3.65-2.17-4.43" style="fill: #dae120;"/>
        <path d="M249.03,193.07c-15.42-12.38-35.11-19.15-55.97-19.15-.32,0-.64.02-.97.02-.32,0-.64-.02-.96-.02-20.87,0-40.56,6.77-55.98,19.15-1.24.99-2.26,2.98-2.34,4.85-.1,2.62,1.33,4.28,1.33,4.28l4.69,5.77s1.5,2.03,4.31,2.37c1.86.23,3.53-.41,4.66-1.21,13.96-9.87,29.29-14.62,44.28-14.68,14.99.06,30.33,4.81,44.28,14.68,1.13.8,2.81,1.44,4.66,1.21,2.82-.34,4.31-2.37,4.31-2.37l4.69-5.77s1.43-1.66,1.33-4.28c-.07-1.86-1.1-3.85-2.34-4.85" style="fill: #dae120;"/>
        <path d="M318.97,100.16c-34.08-28.78-78.36-44.58-125.39-44.58-.26,0-.52,0-.78,0-.24,0-.47,0-.7,0-.23,0-.47,0-.7,0-.26,0-.52,0-.78,0-47.03,0-91.31,15.8-125.39,44.58-.85.72-3.07,3.02-3.35,6.81-.31,4.13,2.09,7.12,2.09,7.12l13.03,16.6c.47.55,2.95,4.31,7.72,4.65,4.22.25,6.36-1.4,6.85-1.78,29.25-22.6,64.03-33.22,99.84-33.22.23,0,.47.01.7.01.23,0,.47-.01.7-.01,35.81,0,70.58,10.61,99.84,33.22.49.38,2.63,2.03,6.86,1.78,4.76-.34,7.25-4.09,7.71-4.65l13.03-16.6s2.4-2.99,2.09-7.12c-.28-3.79-2.5-6.09-3.35-6.81" style="fill: #dae120;"/>
      </g>
      <path d="M184.71,270.45c.16.15.5.14.5.14h3.26c4.07,0,7.17-.75,9.31-2.24,1.22-.82,2.19-1.98,2.9-3.49.71-1.51,1.07-3.13,1.07-4.86,0-3.39-1.1-5.97-3.31-7.73-2.2-1.77-5.46-2.65-9.77-2.65h-3.6c-.09,0-.33.04-.4.13-.07.09-.13.16-.13.3v19.9s-.01.35.15.5M200,278.7l18.42,24.73c.88,1.15,1.32,2,1.32,2.54,0,.75-.27,1.27-.82,1.58-.54.31-1.47.46-2.8.46h-8.4c-1.35,0-2.02-.32-2.31-.48-.29-.15-.96-.54-1.71-1.66l-17.35-25.8h-1.73v24.32c0,1.6-.39,2.26-.79,2.67s-1.21.94-2.77.94h-6.36c-1.59,0-2.37-.49-2.77-.9-.41-.41-.84-1.12-.84-2.71v-62.23c0-1.59.59-2.29,1-2.7.41-.41,1.02-.92,2.61-.92h16.54c7.8,0,13.71,1.65,17.71,4.94,2.14,1.73,3.82,3.99,5.04,6.79,1.22,2.8,1.83,5.74,1.83,8.83s-.56,5.99-1.68,8.7c-1.12,2.72-2.65,4.92-4.58,6.62-2.48,2.07-5.67,3.49-9.57,4.27" style="fill: #292e30;"/>
    </g>
  </g>
  <g>
    <path d="M451.63,197.4l18.44,25.34c.94,1.29,1.41,2.23,1.41,2.82,0,.8-.3,1.37-.89,1.7-.59.33-1.62.5-3.08.5h-4.18c-1.46,0-2.35-.08-2.67-.24s-.89-.84-1.72-2.06l-18.76-26.91h-1.93v25.29c0,1.71-.23,2.79-.68,3.24s-1.53.68-3.24.68h-2.93c-1.71,0-2.79-.23-3.24-.68-.45-.45-.68-1.53-.68-3.24v-63.48c0-1.67.23-2.75.68-3.24.49-.45,1.57-.68,3.24-.68h8.67c4.6,0,8.32.31,11.18.94,2.86.63,5.4,1.69,7.63,3.19,2.65,1.78,4.75,4.23,6.32,7.37,1.46,2.96,2.19,6.11,2.19,9.46,0,4.98-1.45,9.31-4.34,12.98-2.89,3.67-6.71,6.02-11.44,7.03ZM438.25,189.19h3.45c4.74,0,8.31-.85,10.71-2.56,3-2.09,4.49-5.12,4.49-9.09,0-3.73-1.39-6.56-4.18-8.52-2.37-1.64-5.92-2.46-10.66-2.46h-3.81v22.62Z" style="fill: #292e30;"/>
    <path d="M492.63,160.35v63.48c0,1.71-.23,2.79-.68,3.24s-1.53.68-3.24.68h-2.93c-1.71,0-2.79-.23-3.24-.68-.45-.45-.68-1.53-.68-3.24v-63.48c0-1.71.23-2.79.68-3.24s1.53-.68,3.24-.68h2.93c1.71,0,2.79.23,3.24.68.45.45.68,1.53.68,3.24Z" style="fill: #292e30;"/>
    <path d="M516.25,198.81v25.03c0,1.71-.23,2.79-.68,3.24s-1.53.68-3.24.68h-2.93c-1.71,0-2.79-.23-3.24-.68-.45-.45-.68-1.53-.68-3.24v-63.48c0-1.71.23-2.79.68-3.24s1.53-.68,3.24-.68h8.26c6.58,0,11.29.47,14.11,1.41,5.16,1.71,8.95,5,11.39,9.87,1.57,3.1,2.35,6.39,2.35,9.88,0,6.13-2.07,11.18-6.22,15.15-4.21,4.04-10.22,6.06-18.02,6.06h-5.02ZM516.25,188.83h4.02c5.16,0,8.88-.96,11.18-2.87,2.44-2.05,3.66-4.89,3.66-8.52s-1.34-6.6-4.02-8.52c-2.37-1.71-6.13-2.56-11.29-2.56h-3.55v22.46Z" style="fill: #292e30;"/>
    <path d="M566.7,198.81v25.03c0,1.71-.23,2.79-.68,3.24s-1.53.68-3.24.68h-2.93c-1.71,0-2.79-.23-3.24-.68-.45-.45-.68-1.53-.68-3.24v-63.48c0-1.71.23-2.79.68-3.24s1.53-.68,3.24-.68h8.26c6.58,0,11.29.47,14.11,1.41,5.16,1.71,8.95,5,11.39,9.87,1.57,3.1,2.35,6.39,2.35,9.88,0,6.13-2.07,11.18-6.22,15.15-4.21,4.04-10.22,6.06-18.02,6.06h-5.02ZM566.7,188.83h4.02c5.16,0,8.88-.96,11.18-2.87,2.44-2.05,3.66-4.89,3.66-8.52s-1.34-6.6-4.02-8.52c-2.37-1.71-6.13-2.56-11.29-2.56h-3.55v22.46Z" style="fill: #292e30;"/>
    <path d="M617.16,217.62h17.03c1.71,0,2.79.23,3.24.68.45.45.68,1.53.68,3.24v2.3c0,1.71-.23,2.79-.68,3.24s-1.53.68-3.24.68h-23.88c-1.71,0-2.79-.23-3.24-.68-.45-.45-.68-1.53-.68-3.24v-63.48c0-1.71.23-2.79.68-3.24s1.53-.68,3.24-.68h2.93c1.71,0,2.79.23,3.24.68.45.45.68,1.53.68,3.24v57.26Z" style="fill: #292e30;"/>
    <path d="M660.18,166.57v17.08h23.82c1.71,0,2.79.23,3.24.68s.68,1.53.68,3.24v2.3c0,1.67-.23,2.75-.68,3.24-.45.45-1.53.68-3.24.68h-23.82v23.82h24.66c1.71,0,2.79.23,3.24.68.49.45.73,1.53.73,3.24v2.3c0,1.71-.24,2.79-.73,3.24-.45.45-1.53.68-3.24.68h-31.5c-1.71,0-2.79-.23-3.24-.68-.45-.45-.68-1.53-.68-3.24v-63.48c0-1.67.23-2.75.68-3.24.49-.45,1.57-.68,3.24-.68h31.5c1.71,0,2.79.23,3.24.68.49.49.73,1.57.73,3.24v2.3c0,1.67-.24,2.75-.73,3.24-.45.45-1.53.68-3.24.68h-24.66Z" style="fill: #292e30;"/>
    <path d="M740.43,166.57v17.08h20.06c1.67,0,2.75.23,3.24.68.45.45.68,1.53.68,3.24v2.3c0,1.67-.23,2.75-.68,3.24-.49.45-1.57.68-3.24.68h-20.06v30.04c0,1.71-.23,2.79-.68,3.24s-1.53.68-3.24.68h-2.93c-1.71,0-2.79-.23-3.24-.68-.45-.45-.68-1.53-.68-3.24v-63.48c0-1.67.23-2.75.68-3.24.49-.45,1.57-.68,3.24-.68h27.74c1.71,0,2.79.23,3.24.68.45.49.68,1.57.68,3.24v2.3c0,1.67-.23,2.75-.68,3.24-.45.45-1.53.68-3.24.68h-20.9Z" style="fill: #292e30;"/>
    <path d="M785.93,160.35v63.48c0,1.71-.23,2.79-.68,3.24s-1.53.68-3.24.68h-2.93c-1.71,0-2.79-.23-3.24-.68-.45-.45-.68-1.53-.68-3.24v-63.48c0-1.71.23-2.79.68-3.24s1.53-.68,3.24-.68h2.93c1.71,0,2.79.23,3.24.68.45.45.68,1.53.68,3.24Z" style="fill: #292e30;"/>
    <path d="M828.88,189.35c2.58.91,4.75,2.19,6.53,3.87,3.83,3.69,5.75,8.39,5.75,14.11,0,6.23-2.39,11.34-7.16,15.31-2.33,1.92-4.87,3.25-7.6,4-2.74.75-6.5,1.12-11.31,1.12h-12.38c-1.71,0-2.79-.23-3.24-.68-.45-.45-.68-1.53-.68-3.24v-63.48c0-1.71.23-2.79.68-3.24s1.53-.68,3.24-.68h6.79c4.25,0,7.69.28,10.32.84,2.63.56,4.9,1.5,6.82,2.82,2.58,1.74,4.61,4.25,6.11,7.52,1.32,2.82,1.99,5.73,1.99,8.72,0,5.16-1.95,9.49-5.85,13.01ZM809.55,187.05h3.34c4.04,0,6.91-.84,8.62-2.51,2.02-2.02,3.03-4.68,3.03-7.99s-.99-5.82-2.98-7.73c-1.71-1.67-4.46-2.51-8.25-2.51h-3.76v20.74ZM809.55,217.62h6.69c4.39,0,7.68-.75,9.87-2.25,1.32-.87,2.39-2.08,3.21-3.63.82-1.55,1.23-3.14,1.23-4.78s-.4-3.24-1.2-4.81c-.8-1.57-1.86-2.8-3.19-3.71-2.3-1.57-6.03-2.35-11.18-2.35h-5.43v21.53Z" style="fill: #292e30;"/>
    <path d="M861.17,166.57v17.08h23.82c1.71,0,2.79.23,3.24.68s.68,1.53.68,3.24v2.3c0,1.67-.23,2.75-.68,3.24-.45.45-1.53.68-3.24.68h-23.82v23.82h24.66c1.71,0,2.79.23,3.24.68.49.45.73,1.53.73,3.24v2.3c0,1.71-.24,2.79-.73,3.24-.45.45-1.53.68-3.24.68h-31.5c-1.71,0-2.79-.23-3.24-.68-.45-.45-.68-1.53-.68-3.24v-63.48c0-1.67.23-2.75.68-3.24.49-.45,1.57-.68,3.24-.68h31.5c1.71,0,2.79.23,3.24.68.49.49.73,1.57.73,3.24v2.3c0,1.67-.24,2.75-.73,3.24-.45.45-1.53.68-3.24.68h-24.66Z" style="fill: #292e30;"/>
    <path d="M924.84,197.4l18.44,25.34c.94,1.29,1.41,2.23,1.41,2.82,0,.8-.3,1.37-.89,1.7-.59.33-1.62.5-3.08.5h-4.18c-1.46,0-2.35-.08-2.67-.24s-.89-.84-1.72-2.06l-18.76-26.91h-1.93v25.29c0,1.71-.23,2.79-.68,3.24s-1.53.68-3.24.68h-2.93c-1.71,0-2.79-.23-3.24-.68-.45-.45-.68-1.53-.68-3.24v-63.48c0-1.67.23-2.75.68-3.24.49-.45,1.57-.68,3.24-.68h8.67c4.6,0,8.32.31,11.18.94,2.86.63,5.4,1.69,7.63,3.19,2.65,1.78,4.75,4.23,6.32,7.37,1.46,2.96,2.19,6.11,2.19,9.46,0,4.98-1.45,9.31-4.34,12.98-2.89,3.67-6.71,6.02-11.44,7.03ZM911.46,189.19h3.45c4.74,0,8.31-.85,10.71-2.56,3-2.09,4.49-5.12,4.49-9.09,0-3.73-1.39-6.56-4.18-8.52-2.37-1.64-5.92-2.46-10.66-2.46h-3.81v22.62Z" style="fill: #292e30;"/>
  </g>
</svg>